{
	"asset":{
		"generator":"Khronos glTF Blender I/O v4.1.63",
		"version":"2.0"
	},
	"extensionsUsed":[
		"KHR_lights_punctual"
	],
	"extensionsRequired":[
		"KHR_lights_punctual"
	],
	"extensions":{
		"KHR_lights_punctual":{
			"lights":[
				{
					"color":[
						1,
						1,
						1
					],
					"intensity":271757.0653294113,
					"type":"point",
					"name":"Point.008"
				}
			]
		}
	},
	"scene":0,
	"scenes":[
		{
			"name":"Scene",
			"nodes":[
				0,
				1,
				2
			]
		}
	],
	"nodes":[
		{
			"mesh":0,
			"name":"Plane",
			"scale":[
				-32.14816665649414,
				-32.14816665649414,
				-32.14816665649414
			],
			"translation":[
				-0.2458725869655609,
				0,
				0
			]
		},
		{
			"extensions":{
				"KHR_lights_punctual":{
					"light":0
				}
			},
			"name":"Point",
			"rotation":[
				-0.7071068286895752,
				0,
				0,
				0.7071068286895752
			],
			"translation":[
				-0.2458725869655609,
				17.6870174407959,
				0
			]
		},
		{
			"mesh":1,
			"name":"tree-stylized-03-autumn-yellow_tree-bark-03_0.002",
			"rotation":[
				-0.680117666721344,
				0,
				0,
				0.7331029772758484
			],
			"translation":[
				8.715853691101074,
				0,
				-0.3074336051940918
			]
		}
	],
	"materials":[
		{
			"doubleSided":true,
			"name":"Material.005",
			"pbrMetallicRoughness":{
				"baseColorTexture":{
					"index":0
				},
				"metallicFactor":0,
				"roughnessFactor":0.5
			}
		},
		{
			"doubleSided":true,
			"name":"tree-bark-03.003",
			"normalTexture":{
				"index":1
			},
			"pbrMetallicRoughness":{
				"baseColorTexture":{
					"index":2
				},
				"metallicFactor":0,
				"roughnessFactor":0.8211145401000977
			}
		},
		{
			"alphaCutoff":0.8999999761581421,
			"alphaMode":"MASK",
			"doubleSided":true,
			"name":"tree-branches-autumn-yellow-mix-diffuse.003",
			"normalTexture":{
				"index":3
			},
			"pbrMetallicRoughness":{
				"baseColorTexture":{
					"index":4
				},
				"metallicFactor":0,
				"roughnessFactor":0.8211145401000977
			}
		}
	],
	"meshes":[
		{
			"name":"Plane.003",
			"primitives":[
				{
					"attributes":{
						"POSITION":0,
						"NORMAL":1,
						"TEXCOORD_0":2
					},
					"indices":3,
					"material":0
				}
			]
		},
		{
			"name":"tree-stylized-03-autumn-yellow_tree-bark-03_0.022",
			"primitives":[
				{
					"attributes":{
						"POSITION":4,
						"NORMAL":5,
						"TEXCOORD_0":6,
						"TEXCOORD_1":7
					},
					"indices":8,
					"material":1
				},
				{
					"attributes":{
						"POSITION":9,
						"NORMAL":10,
						"TEXCOORD_0":11,
						"TEXCOORD_1":12
					},
					"indices":13,
					"material":2
				}
			]
		}
	],
	"textures":[
		{
			"sampler":0,
			"source":0
		},
		{
			"sampler":0,
			"source":1
		},
		{
			"sampler":0,
			"source":2
		},
		{
			"sampler":1,
			"source":3
		},
		{
			"sampler":1,
			"source":4
		}
	],
	"images":[
		{
			"mimeType":"image/png",
			"name":"ground",
			"uri":"ground.png"
		},
		{
			"mimeType":"image/png",
			"name":"tree-bark-03_normal",
			"uri":"tree-bark-03_normal.png"
		},
		{
			"mimeType":"image/png",
			"name":"tree-bark-03_baseColor",
			"uri":"tree-bark-03_baseColor.png"
		},
		{
			"mimeType":"image/png",
			"name":"tree-branches-autumn-yellow-mix-diffuse_normal",
			"uri":"tree-branches-autumn-yellow-mix-diffuse_normal.png"
		},
		{
			"mimeType":"image/png",
			"name":"tree-branches-autumn-yellow-mix-diffuse_baseColor",
			"uri":"tree-branches-autumn-yellow-mix-diffuse_baseColor.png"
		}
	],
	"accessors":[
		{
			"bufferView":0,
			"componentType":5126,
			"count":414,
			"max":[
				1.0717575550079346,
				0.2732280194759369,
				1.0141172409057617
			],
			"min":[
				-1.024263858795166,
				-0.3209593892097473,
				-1.0817490816116333
			],
			"type":"VEC3"
		},
		{
			"bufferView":1,
			"componentType":5126,
			"count":414,
			"type":"VEC3"
		},
		{
			"bufferView":2,
			"componentType":5126,
			"count":414,
			"type":"VEC2"
		},
		{
			"bufferView":3,
			"componentType":5123,
			"count":720,
			"type":"SCALAR"
		},
		{
			"bufferView":4,
			"componentType":5126,
			"count":512,
			"max":[
				1.70494544506073,
				1.4995442628860474,
				6.524301528930664
			],
			"min":[
				-1.3722285032272339,
				-0.9197829961776733,
				-0.1444876790046692
			],
			"type":"VEC3"
		},
		{
			"bufferView":5,
			"componentType":5126,
			"count":512,
			"type":"VEC3"
		},
		{
			"bufferView":6,
			"componentType":5126,
			"count":512,
			"type":"VEC2"
		},
		{
			"bufferView":7,
			"componentType":5126,
			"count":512,
			"type":"VEC2"
		},
		{
			"bufferView":8,
			"componentType":5123,
			"count":1164,
			"type":"SCALAR"
		},
		{
			"bufferView":9,
			"componentType":5126,
			"count":2264,
			"max":[
				2.8576366901397705,
				3.1005475521087646,
				7.3280744552612305
			],
			"min":[
				-2.0906338691711426,
				-2.1616337299346924,
				1.768431305885315
			],
			"type":"VEC3"
		},
		{
			"bufferView":10,
			"componentType":5126,
			"count":2264,
			"type":"VEC3"
		},
		{
			"bufferView":11,
			"componentType":5126,
			"count":2264,
			"type":"VEC2"
		},
		{
			"bufferView":12,
			"componentType":5126,
			"count":2264,
			"type":"VEC2"
		},
		{
			"bufferView":13,
			"componentType":5123,
			"count":3384,
			"type":"SCALAR"
		}
	],
	"bufferViews":[
		{
			"buffer":0,
			"byteLength":4968,
			"byteOffset":0,
			"target":34962
		},
		{
			"buffer":0,
			"byteLength":4968,
			"byteOffset":4968,
			"target":34962
		},
		{
			"buffer":0,
			"byteLength":3312,
			"byteOffset":9936,
			"target":34962
		},
		{
			"buffer":0,
			"byteLength":1440,
			"byteOffset":13248,
			"target":34963
		},
		{
			"buffer":0,
			"byteLength":6144,
			"byteOffset":14688,
			"target":34962
		},
		{
			"buffer":0,
			"byteLength":6144,
			"byteOffset":20832,
			"target":34962
		},
		{
			"buffer":0,
			"byteLength":4096,
			"byteOffset":26976,
			"target":34962
		},
		{
			"buffer":0,
			"byteLength":4096,
			"byteOffset":31072,
			"target":34962
		},
		{
			"buffer":0,
			"byteLength":2328,
			"byteOffset":35168,
			"target":34963
		},
		{
			"buffer":0,
			"byteLength":27168,
			"byteOffset":37496,
			"target":34962
		},
		{
			"buffer":0,
			"byteLength":27168,
			"byteOffset":64664,
			"target":34962
		},
		{
			"buffer":0,
			"byteLength":18112,
			"byteOffset":91832,
			"target":34962
		},
		{
			"buffer":0,
			"byteLength":18112,
			"byteOffset":109944,
			"target":34962
		},
		{
			"buffer":0,
			"byteLength":6768,
			"byteOffset":128056,
			"target":34963
		}
	],
	"samplers":[
		{
			"magFilter":9729,
			"minFilter":9987
		},
		{
			"magFilter":9729,
			"minFilter":9987,
			"wrapS":33071,
			"wrapT":33071
		}
	],
	"buffers":[
		{
			"byteLength":134824,
			"uri":"base.bin"
		}
	]
}
