{
	"asset":{
		"generator":"Khronos glTF Blender I/O v4.1.63",
		"version":"2.0"
	},
	"scene":0,
	"scenes":[
		{
			"name":"Scene",
			"nodes":[
				0,
				1,
				2,
				3,
				4,
				5,
				6,
				7
			]
		}
	],
	"nodes":[
		{
			"mesh":0,
			"name":"Plane",
			"scale":[
				40.27472686767578,
				40.27472686767578,
				40.27472686767578
			]
		},
		{
			"mesh":1,
			"name":"Cube",
			"scale":[
				1,
				1,
				0.8763530254364014
			],
			"translation":[
				-40.18891525268555,
				0,
				-0.03107452392578125
			]
		},
		{
			"mesh":2,
			"name":"ConcreteBench_ConcreteBench_shader_0",
			"rotation":[
				0,
				-0.6508421897888184,
				0,
				0.7592130303382874
			],
			"scale":[
				0.010000001639127731,
				0.010000001639127731,
				0.01000000350177288
			],
			"translation":[
				0.6534250974655151,
				0.5561988353729248,
				3.451127290725708
			]
		},
		{
			"mesh":3,
			"name":"Light_Light_shader_0",
			"scale":[
				0.009999999776482582,
				0.010000001639127731,
				0.010000001639127731
			],
			"translation":[
				3.3648154735565186,
				2.6958773136138916,
				3.3901262283325195
			]
		},
		{
			"mesh":4,
			"name":"Tree",
			"rotation":[
				0,
				-0.4233916997909546,
				0,
				0.9059467315673828
			],
			"translation":[
				4.668997764587402,
				0,
				-4.711792469024658
			]
		},
		{
			"mesh":5,
			"name":"Tree.001",
			"rotation":[
				0,
				0.12447454035282135,
				0,
				0.9922228455543518
			],
			"translation":[
				7.712790012359619,
				0,
				3.9507088661193848
			]
		},
		{
			"mesh":6,
			"name":"Tree.002",
			"rotation":[
				0,
				0.23285621404647827,
				0,
				0.9725111722946167
			],
			"translation":[
				-9.272167205810547,
				0,
				3.7156481742858887
			]
		},
		{
			"mesh":7,
			"name":"Tree.003",
			"translation":[
				-19.500158309936523,
				0,
				-4.105897903442383
			]
		}
	],
	"materials":[
		{
			"doubleSided":true,
			"name":"ground",
			"pbrMetallicRoughness":{
				"baseColorTexture":{
					"index":0
				},
				"metallicFactor":0,
				"roughnessFactor":0.5
			}
		},
		{
			"doubleSided":true,
			"name":"Material.002",
			"pbrMetallicRoughness":{
				"baseColorTexture":{
					"index":1
				},
				"metallicFactor":0,
				"roughnessFactor":0.5
			}
		},
		{
			"doubleSided":true,
			"emissiveFactor":[
				1,
				1,
				1
			],
			"emissiveTexture":{
				"index":2
			},
			"name":"ConcreteBench_shader.001",
			"pbrMetallicRoughness":{
				"baseColorTexture":{
					"index":3
				},
				"metallicFactor":0,
				"roughnessFactor":0.6000000238418579
			}
		},
		{
			"alphaMode":"BLEND",
			"doubleSided":true,
			"emissiveFactor":[
				1,
				1,
				1
			],
			"emissiveTexture":{
				"index":4
			},
			"name":"Light_shader.001",
			"pbrMetallicRoughness":{
				"baseColorTexture":{
					"index":5
				},
				"metallicFactor":0,
				"roughnessFactor":0.6000000238418579
			}
		},
		{
			"doubleSided":true,
			"name":"Bark.001",
			"pbrMetallicRoughness":{
				"baseColorTexture":{
					"index":6
				},
				"metallicFactor":0,
				"roughnessFactor":0.4000000059604645
			}
		},
		{
			"doubleSided":true,
			"emissiveFactor":[
				0.9450980424880981,
				0.9450980424880981,
				0.9607843160629272
			],
			"name":"snow.001",
			"pbrMetallicRoughness":{
				"baseColorTexture":{
					"index":7
				},
				"metallicFactor":0,
				"roughnessFactor":0.4000000059604645
			}
		}
	],
	"meshes":[
		{
			"name":"Plane",
			"primitives":[
				{
					"attributes":{
						"POSITION":0,
						"NORMAL":1,
						"TEXCOORD_0":2
					},
					"indices":3,
					"material":0
				}
			]
		},
		{
			"name":"Cube.003",
			"primitives":[
				{
					"attributes":{
						"POSITION":4,
						"NORMAL":5,
						"TEXCOORD_0":6
					},
					"indices":7,
					"material":1
				}
			]
		},
		{
			"name":"ConcreteBench_ConcreteBench_shader_0.001",
			"primitives":[
				{
					"attributes":{
						"POSITION":8,
						"NORMAL":9,
						"TEXCOORD_0":10
					},
					"indices":11,
					"material":2
				}
			]
		},
		{
			"name":"Light_Light_shader_0.001",
			"primitives":[
				{
					"attributes":{
						"POSITION":12,
						"NORMAL":13,
						"TEXCOORD_0":14
					},
					"indices":15,
					"material":3
				}
			]
		},
		{
			"name":"/Browser/InputFile/9703ad17-d850-42e7-9214-543916dfad71?ext=lwo",
			"primitives":[
				{
					"attributes":{
						"POSITION":16,
						"NORMAL":17
					},
					"indices":18,
					"material":4
				},
				{
					"attributes":{
						"POSITION":19,
						"NORMAL":20
					},
					"indices":21,
					"material":5
				}
			]
		},
		{
			"name":"/Browser/InputFile/9703ad17-d850-42e7-9214-543916dfad71?ext.003",
			"primitives":[
				{
					"attributes":{
						"POSITION":22,
						"NORMAL":23
					},
					"indices":18,
					"material":4
				},
				{
					"attributes":{
						"POSITION":24,
						"NORMAL":25
					},
					"indices":21,
					"material":5
				}
			]
		},
		{
			"name":"/Browser/InputFile/9703ad17-d850-42e7-9214-543916dfad71?ext.004",
			"primitives":[
				{
					"attributes":{
						"POSITION":26,
						"NORMAL":27
					},
					"indices":18,
					"material":4
				},
				{
					"attributes":{
						"POSITION":28,
						"NORMAL":29
					},
					"indices":21,
					"material":5
				}
			]
		},
		{
			"name":"/Browser/InputFile/9703ad17-d850-42e7-9214-543916dfad71?ext.005",
			"primitives":[
				{
					"attributes":{
						"POSITION":30,
						"NORMAL":31
					},
					"indices":18,
					"material":4
				},
				{
					"attributes":{
						"POSITION":32,
						"NORMAL":33
					},
					"indices":21,
					"material":5
				}
			]
		}
	],
	"textures":[
		{
			"sampler":0,
			"source":0
		},
		{
			"sampler":0,
			"source":1
		},
		{
			"sampler":0,
			"source":2
		},
		{
			"sampler":0,
			"source":3
		},
		{
			"sampler":0,
			"source":4
		},
		{
			"sampler":0,
			"source":5
		},
		{
			"sampler":0,
			"source":6
		},
		{
			"sampler":0,
			"source":0
		}
	],
	"images":[
		{
			"mimeType":"image/png",
			"name":"ground",
			"uri":"ground.png"
		},
		{
			"mimeType":"image/png",
			"name":"path",
			"uri":"path.png"
		},
		{
			"mimeType":"image/png",
			"name":"ConcreteBench_shader_emissive",
			"uri":"ConcreteBench_shader_emissive.png"
		},
		{
			"mimeType":"image/png",
			"name":"ConcreteBench_shader_baseColor",
			"uri":"ConcreteBench_shader_baseColor.png"
		},
		{
			"mimeType":"image/png",
			"name":"Light_shader_emissive",
			"uri":"Light_shader_emissive.png"
		},
		{
			"mimeType":"image/png",
			"name":"Light_shader_baseColor",
			"uri":"Light_shader_baseColor.png"
		},
		{
			"mimeType":"image/png",
			"name":"wood",
			"uri":"wood.png"
		}
	],
	"accessors":[
		{
			"bufferView":0,
			"componentType":5126,
			"count":16677,
			"max":[
				1,
				0.017193539068102837,
				1
			],
			"min":[
				-1,
				0,
				-1
			],
			"type":"VEC3"
		},
		{
			"bufferView":1,
			"componentType":5126,
			"count":16677,
			"type":"VEC3"
		},
		{
			"bufferView":2,
			"componentType":5126,
			"count":16677,
			"type":"VEC2"
		},
		{
			"bufferView":3,
			"componentType":5123,
			"count":96624,
			"type":"SCALAR"
		},
		{
			"bufferView":4,
			"componentType":5126,
			"count":1428,
			"max":[
				80.93653106689453,
				0.03296361863613129,
				1
			],
			"min":[
				-0.8519639372825623,
				0.0036789309233427048,
				-47
			],
			"type":"VEC3"
		},
		{
			"bufferView":5,
			"componentType":5126,
			"count":1428,
			"type":"VEC3"
		},
		{
			"bufferView":6,
			"componentType":5126,
			"count":1428,
			"type":"VEC2"
		},
		{
			"bufferView":7,
			"componentType":5123,
			"count":2142,
			"type":"SCALAR"
		},
		{
			"bufferView":8,
			"componentType":5126,
			"count":5032,
			"max":[
				61.32765197753906,
				44.42577362060547,
				102.70306396484375
			],
			"min":[
				-53.56731414794922,
				-63.28478240966797,
				-104.460205078125
			],
			"type":"VEC3"
		},
		{
			"bufferView":9,
			"componentType":5126,
			"count":5032,
			"type":"VEC3"
		},
		{
			"bufferView":10,
			"componentType":5126,
			"count":5032,
			"type":"VEC2"
		},
		{
			"bufferView":11,
			"componentType":5123,
			"count":6912,
			"type":"SCALAR"
		},
		{
			"bufferView":12,
			"componentType":5126,
			"count":6148,
			"max":[
				23.3759765625,
				145.1524658203125,
				22.7899169921875
			],
			"min":[
				-23.318359375,
				-269.4686584472656,
				-22.889678955078125
			],
			"type":"VEC3"
		},
		{
			"bufferView":13,
			"componentType":5126,
			"count":6148,
			"type":"VEC3"
		},
		{
			"bufferView":14,
			"componentType":5126,
			"count":6148,
			"type":"VEC2"
		},
		{
			"bufferView":15,
			"componentType":5123,
			"count":9120,
			"type":"SCALAR"
		},
		{
			"bufferView":16,
			"componentType":5126,
			"count":21856,
			"max":[
				3.307377815246582,
				7.425441265106201,
				2.945521116256714
			],
			"min":[
				-3.264417886734009,
				-0.014050795696675777,
				-3.2234244346618652
			],
			"type":"VEC3"
		},
		{
			"bufferView":17,
			"componentType":5126,
			"count":21856,
			"type":"VEC3"
		},
		{
			"bufferView":18,
			"componentType":5123,
			"count":87243,
			"type":"SCALAR"
		},
		{
			"bufferView":19,
			"componentType":5126,
			"count":18928,
			"max":[
				3.314495086669922,
				7.427742958068848,
				2.945387363433838
			],
			"min":[
				-3.2705676555633545,
				1.3461450338363647,
				-3.225860834121704
			],
			"type":"VEC3"
		},
		{
			"bufferView":20,
			"componentType":5126,
			"count":18928,
			"type":"VEC3"
		},
		{
			"bufferView":21,
			"componentType":5123,
			"count":108264,
			"type":"SCALAR"
		},
		{
			"bufferView":22,
			"componentType":5126,
			"count":21856,
			"max":[
				3.307377815246582,
				7.425441265106201,
				2.945521116256714
			],
			"min":[
				-3.264417886734009,
				-0.014050795696675777,
				-3.2234244346618652
			],
			"type":"VEC3"
		},
		{
			"bufferView":23,
			"componentType":5126,
			"count":21856,
			"type":"VEC3"
		},
		{
			"bufferView":24,
			"componentType":5126,
			"count":18928,
			"max":[
				3.314495086669922,
				7.427742958068848,
				2.945387363433838
			],
			"min":[
				-3.2705676555633545,
				1.3461450338363647,
				-3.225860834121704
			],
			"type":"VEC3"
		},
		{
			"bufferView":25,
			"componentType":5126,
			"count":18928,
			"type":"VEC3"
		},
		{
			"bufferView":26,
			"componentType":5126,
			"count":21856,
			"max":[
				3.307377815246582,
				7.425441265106201,
				2.945521116256714
			],
			"min":[
				-3.264417886734009,
				-0.014050795696675777,
				-3.2234244346618652
			],
			"type":"VEC3"
		},
		{
			"bufferView":27,
			"componentType":5126,
			"count":21856,
			"type":"VEC3"
		},
		{
			"bufferView":28,
			"componentType":5126,
			"count":18928,
			"max":[
				3.314495086669922,
				7.427742958068848,
				2.945387363433838
			],
			"min":[
				-3.2705676555633545,
				1.3461450338363647,
				-3.225860834121704
			],
			"type":"VEC3"
		},
		{
			"bufferView":29,
			"componentType":5126,
			"count":18928,
			"type":"VEC3"
		},
		{
			"bufferView":30,
			"componentType":5126,
			"count":21856,
			"max":[
				3.307377815246582,
				7.425441265106201,
				2.945521116256714
			],
			"min":[
				-3.264417886734009,
				-0.014050795696675777,
				-3.2234244346618652
			],
			"type":"VEC3"
		},
		{
			"bufferView":31,
			"componentType":5126,
			"count":21856,
			"type":"VEC3"
		},
		{
			"bufferView":32,
			"componentType":5126,
			"count":18928,
			"max":[
				3.314495086669922,
				7.427742958068848,
				2.945387363433838
			],
			"min":[
				-3.2705676555633545,
				1.3461450338363647,
				-3.225860834121704
			],
			"type":"VEC3"
		},
		{
			"bufferView":33,
			"componentType":5126,
			"count":18928,
			"type":"VEC3"
		}
	],
	"bufferViews":[
		{
			"buffer":0,
			"byteLength":200124,
			"byteOffset":0,
			"target":34962
		},
		{
			"buffer":0,
			"byteLength":200124,
			"byteOffset":200124,
			"target":34962
		},
		{
			"buffer":0,
			"byteLength":133416,
			"byteOffset":400248,
			"target":34962
		},
		{
			"buffer":0,
			"byteLength":193248,
			"byteOffset":533664,
			"target":34963
		},
		{
			"buffer":0,
			"byteLength":17136,
			"byteOffset":726912,
			"target":34962
		},
		{
			"buffer":0,
			"byteLength":17136,
			"byteOffset":744048,
			"target":34962
		},
		{
			"buffer":0,
			"byteLength":11424,
			"byteOffset":761184,
			"target":34962
		},
		{
			"buffer":0,
			"byteLength":4284,
			"byteOffset":772608,
			"target":34963
		},
		{
			"buffer":0,
			"byteLength":60384,
			"byteOffset":776892,
			"target":34962
		},
		{
			"buffer":0,
			"byteLength":60384,
			"byteOffset":837276,
			"target":34962
		},
		{
			"buffer":0,
			"byteLength":40256,
			"byteOffset":897660,
			"target":34962
		},
		{
			"buffer":0,
			"byteLength":13824,
			"byteOffset":937916,
			"target":34963
		},
		{
			"buffer":0,
			"byteLength":73776,
			"byteOffset":951740,
			"target":34962
		},
		{
			"buffer":0,
			"byteLength":73776,
			"byteOffset":1025516,
			"target":34962
		},
		{
			"buffer":0,
			"byteLength":49184,
			"byteOffset":1099292,
			"target":34962
		},
		{
			"buffer":0,
			"byteLength":18240,
			"byteOffset":1148476,
			"target":34963
		},
		{
			"buffer":0,
			"byteLength":262272,
			"byteOffset":1166716,
			"target":34962
		},
		{
			"buffer":0,
			"byteLength":262272,
			"byteOffset":1428988,
			"target":34962
		},
		{
			"buffer":0,
			"byteLength":174486,
			"byteOffset":1691260,
			"target":34963
		},
		{
			"buffer":0,
			"byteLength":227136,
			"byteOffset":1865748,
			"target":34962
		},
		{
			"buffer":0,
			"byteLength":227136,
			"byteOffset":2092884,
			"target":34962
		},
		{
			"buffer":0,
			"byteLength":216528,
			"byteOffset":2320020,
			"target":34963
		},
		{
			"buffer":0,
			"byteLength":262272,
			"byteOffset":2536548,
			"target":34962
		},
		{
			"buffer":0,
			"byteLength":262272,
			"byteOffset":2798820,
			"target":34962
		},
		{
			"buffer":0,
			"byteLength":227136,
			"byteOffset":3061092,
			"target":34962
		},
		{
			"buffer":0,
			"byteLength":227136,
			"byteOffset":3288228,
			"target":34962
		},
		{
			"buffer":0,
			"byteLength":262272,
			"byteOffset":3515364,
			"target":34962
		},
		{
			"buffer":0,
			"byteLength":262272,
			"byteOffset":3777636,
			"target":34962
		},
		{
			"buffer":0,
			"byteLength":227136,
			"byteOffset":4039908,
			"target":34962
		},
		{
			"buffer":0,
			"byteLength":227136,
			"byteOffset":4267044,
			"target":34962
		},
		{
			"buffer":0,
			"byteLength":262272,
			"byteOffset":4494180,
			"target":34962
		},
		{
			"buffer":0,
			"byteLength":262272,
			"byteOffset":4756452,
			"target":34962
		},
		{
			"buffer":0,
			"byteLength":227136,
			"byteOffset":5018724,
			"target":34962
		},
		{
			"buffer":0,
			"byteLength":227136,
			"byteOffset":5245860,
			"target":34962
		}
	],
	"samplers":[
		{
			"magFilter":9729,
			"minFilter":9987
		}
	],
	"buffers":[
		{
			"byteLength":5472996,
			"uri":"base.bin"
		}
	]
}
