{
	"asset":{
		"generator":"Khronos glTF Blender I/O v4.1.63",
		"version":"2.0"
	},
	"extensionsUsed":[
		"KHR_materials_specular"
	],
	"scene":0,
	"scenes":[
		{
			"name":"Scene",
			"nodes":[
				0,
				1,
				2,
				3
			]
		}
	],
	"nodes":[
		{
			"mesh":0,
			"name":"Ground",
			"scale":[
				21.336862564086914,
				21.336862564086914,
				21.336862564086914
			]
		},
		{
			"mesh":1,
			"name":"Build",
			"rotation":[
				0.7071068286895752,
				0,
				0,
				0.7071068286895752
			],
			"scale":[
				0.009999999776482582,
				0.009999999776482582,
				0.009999999776482582
			],
			"translation":[
				0,
				4.274110794067383,
				-18.203907012939453
			]
		},
		{
			"mesh":2,
			"name":"Build.001",
			"rotation":[
				0.0037765607703477144,
				0.7070968151092529,
				-0.7070965766906738,
				0.0037765612360090017
			],
			"scale":[
				0.009999999776482582,
				0.009999999776482582,
				0.009999999776482582
			],
			"translation":[
				-3.467331886291504,
				4.349180221557617,
				20.98276710510254
			]
		},
		{
			"mesh":3,
			"name":"Yolka",
			"rotation":[
				-0.712536096572876,
				-0.1943785697221756,
				0.2169853001832962,
				0.6382998824119568
			],
			"scale":[
				0.1118878722190857,
				0.125700443983078,
				0.11967331171035767
			],
			"translation":[
				1.033339023590088,
				8.851268768310547,
				-7.400341987609863
			]
		}
	],
	"materials":[
		{
			"doubleSided":true,
			"name":"Material.001",
			"pbrMetallicRoughness":{
				"baseColorTexture":{
					"index":0
				},
				"metallicFactor":0,
				"roughnessFactor":0.5
			}
		},
		{
			"doubleSided":true,
			"name":"Material.002",
			"pbrMetallicRoughness":{
				"baseColorTexture":{
					"index":1
				},
				"metallicFactor":0,
				"roughnessFactor":0.5
			}
		},
		{
			"doubleSided":true,
			"extensions":{
				"KHR_materials_specular":{
					"specularFactor":0.39393937587738037
				}
			},
			"name":"9.ya4ser.001",
			"pbrMetallicRoughness":{
				"baseColorTexture":{
					"index":2
				},
				"metallicFactor":0
			}
		},
		{
			"doubleSided":true,
			"extensions":{
				"KHR_materials_specular":{
					"specularFactor":0.39393937587738037
				}
			},
			"name":"9.ya4ser.002",
			"pbrMetallicRoughness":{
				"baseColorTexture":{
					"index":3
				},
				"metallicFactor":0
			}
		},
		{
			"alphaCutoff":0.48609670996665955,
			"alphaMode":"MASK",
			"doubleSided":true,
			"extensions":{
				"KHR_materials_specular":{
					"specularFactor":0
				}
			},
			"name":"Tree_tex.001",
			"pbrMetallicRoughness":{
				"baseColorTexture":{
					"index":4
				},
				"metallicFactor":0
			}
		}
	],
	"meshes":[
		{
			"name":"Plane.001",
			"primitives":[
				{
					"attributes":{
						"POSITION":0,
						"NORMAL":1,
						"TEXCOORD_0":2
					},
					"indices":3,
					"material":0
				},
				{
					"attributes":{
						"POSITION":4,
						"NORMAL":5,
						"TEXCOORD_0":6
					},
					"indices":7,
					"material":1
				}
			]
		},
		{
			"name":"GRAYBUILD1.025",
			"primitives":[
				{
					"attributes":{
						"POSITION":8,
						"NORMAL":9,
						"TEXCOORD_0":10
					},
					"indices":11,
					"material":2
				}
			]
		},
		{
			"name":"Plane.028",
			"primitives":[
				{
					"attributes":{
						"POSITION":12,
						"NORMAL":13,
						"TEXCOORD_0":14
					},
					"indices":15,
					"material":3
				}
			]
		},
		{
			"name":"Plane.037_Tree_tex_0.003",
			"primitives":[
				{
					"attributes":{
						"POSITION":16,
						"NORMAL":17,
						"TEXCOORD_0":18
					},
					"indices":19,
					"material":4
				}
			]
		}
	],
	"textures":[
		{
			"sampler":0,
			"source":0
		},
		{
			"sampler":0,
			"source":1
		},
		{
			"sampler":0,
			"source":2
		},
		{
			"sampler":0,
			"source":2
		},
		{
			"sampler":0,
			"source":3
		}
	],
	"images":[
		{
			"mimeType":"image/png",
			"name":"ground",
			"uri":"ground.png"
		},
		{
			"mimeType":"image/png",
			"name":"path",
			"uri":"path.png"
		},
		{
			"mimeType":"image/jpeg",
			"name":"atlsserii",
			"uri":"atlsserii.jpg"
		},
		{
			"mimeType":"image/png",
			"name":"output-onlinepngtools-Tree_tex_baseColor",
			"uri":"output-onlinepngtools-Tree_tex_baseColor.png"
		}
	],
	"accessors":[
		{
			"bufferView":0,
			"componentType":5126,
			"count":1247,
			"max":[
				1,
				0.042477138340473175,
				1
			],
			"min":[
				-1,
				0,
				-1
			],
			"type":"VEC3"
		},
		{
			"bufferView":1,
			"componentType":5126,
			"count":1247,
			"type":"VEC3"
		},
		{
			"bufferView":2,
			"componentType":5126,
			"count":1247,
			"type":"VEC2"
		},
		{
			"bufferView":3,
			"componentType":5123,
			"count":5616,
			"type":"SCALAR"
		},
		{
			"bufferView":4,
			"componentType":5126,
			"count":128,
			"max":[
				1,
				0.003757190192118287,
				0.09677421301603317
			],
			"min":[
				-1,
				0.003757190192118287,
				-0.09677421301603317
			],
			"type":"VEC3"
		},
		{
			"bufferView":5,
			"componentType":5126,
			"count":128,
			"type":"VEC3"
		},
		{
			"bufferView":6,
			"componentType":5126,
			"count":128,
			"type":"VEC2"
		},
		{
			"bufferView":7,
			"componentType":5123,
			"count":558,
			"type":"SCALAR"
		},
		{
			"bufferView":8,
			"componentType":5126,
			"count":21358,
			"max":[
				1599.9998779296875,
				454.3789367675781,
				435.7673034667969
			],
			"min":[
				-1595.1077880859375,
				-415.6272888183594,
				-1188.5948486328125
			],
			"type":"VEC3"
		},
		{
			"bufferView":9,
			"componentType":5126,
			"count":21358,
			"type":"VEC3"
		},
		{
			"bufferView":10,
			"componentType":5126,
			"count":21358,
			"type":"VEC2"
		},
		{
			"bufferView":11,
			"componentType":5123,
			"count":38259,
			"type":"SCALAR"
		},
		{
			"bufferView":12,
			"componentType":5126,
			"count":21358,
			"max":[
				1599.9993896484375,
				454.3787536621094,
				435.7671203613281
			],
			"min":[
				-1595.1072998046875,
				-415.6271667480469,
				-1188.5947265625
			],
			"type":"VEC3"
		},
		{
			"bufferView":13,
			"componentType":5126,
			"count":21358,
			"type":"VEC3"
		},
		{
			"bufferView":14,
			"componentType":5126,
			"count":21358,
			"type":"VEC2"
		},
		{
			"bufferView":15,
			"componentType":5123,
			"count":38259,
			"type":"SCALAR"
		},
		{
			"bufferView":16,
			"componentType":5126,
			"count":2730,
			"max":[
				2.9724082946777344,
				25.87409782409668,
				-0.047149658203125
			],
			"min":[
				-57.531856536865234,
				-18.2111759185791,
				-69.11398315429688
			],
			"type":"VEC3"
		},
		{
			"bufferView":17,
			"componentType":5126,
			"count":2730,
			"type":"VEC3"
		},
		{
			"bufferView":18,
			"componentType":5126,
			"count":2730,
			"type":"VEC2"
		},
		{
			"bufferView":19,
			"componentType":5123,
			"count":3540,
			"type":"SCALAR"
		}
	],
	"bufferViews":[
		{
			"buffer":0,
			"byteLength":14964,
			"byteOffset":0,
			"target":34962
		},
		{
			"buffer":0,
			"byteLength":14964,
			"byteOffset":14964,
			"target":34962
		},
		{
			"buffer":0,
			"byteLength":9976,
			"byteOffset":29928,
			"target":34962
		},
		{
			"buffer":0,
			"byteLength":11232,
			"byteOffset":39904,
			"target":34963
		},
		{
			"buffer":0,
			"byteLength":1536,
			"byteOffset":51136,
			"target":34962
		},
		{
			"buffer":0,
			"byteLength":1536,
			"byteOffset":52672,
			"target":34962
		},
		{
			"buffer":0,
			"byteLength":1024,
			"byteOffset":54208,
			"target":34962
		},
		{
			"buffer":0,
			"byteLength":1116,
			"byteOffset":55232,
			"target":34963
		},
		{
			"buffer":0,
			"byteLength":256296,
			"byteOffset":56348,
			"target":34962
		},
		{
			"buffer":0,
			"byteLength":256296,
			"byteOffset":312644,
			"target":34962
		},
		{
			"buffer":0,
			"byteLength":170864,
			"byteOffset":568940,
			"target":34962
		},
		{
			"buffer":0,
			"byteLength":76518,
			"byteOffset":739804,
			"target":34963
		},
		{
			"buffer":0,
			"byteLength":256296,
			"byteOffset":816324,
			"target":34962
		},
		{
			"buffer":0,
			"byteLength":256296,
			"byteOffset":1072620,
			"target":34962
		},
		{
			"buffer":0,
			"byteLength":170864,
			"byteOffset":1328916,
			"target":34962
		},
		{
			"buffer":0,
			"byteLength":76518,
			"byteOffset":1499780,
			"target":34963
		},
		{
			"buffer":0,
			"byteLength":32760,
			"byteOffset":1576300,
			"target":34962
		},
		{
			"buffer":0,
			"byteLength":32760,
			"byteOffset":1609060,
			"target":34962
		},
		{
			"buffer":0,
			"byteLength":21840,
			"byteOffset":1641820,
			"target":34962
		},
		{
			"buffer":0,
			"byteLength":7080,
			"byteOffset":1663660,
			"target":34963
		}
	],
	"samplers":[
		{
			"magFilter":9729,
			"minFilter":9987
		}
	],
	"buffers":[
		{
			"byteLength":1670740,
			"uri":"base.bin"
		}
	]
}
