{
	"asset":{
		"generator":"Khronos glTF Blender I/O v4.1.63",
		"version":"2.0"
	},
	"scene":0,
	"scenes":[
		{
			"name":"Scene",
			"nodes":[
				0
			]
		}
	],
	"nodes":[
		{
			"mesh":0,
			"name":"ConcreteBench_ConcreteBench_shader_0",
			"scale":[
				0.009999999776482582,
				0.010000001639127731,
				0.010000001639127731
			]
		}
	],
	"materials":[
		{
			"doubleSided":true,
			"emissiveFactor":[
				1,
				1,
				1
			],
			"emissiveTexture":{
				"index":0
			},
			"name":"ConcreteBench_shader",
			"normalTexture":{
				"index":1
			},
			"pbrMetallicRoughness":{
				"baseColorTexture":{
					"index":2
				},
				"metallicFactor":0,
				"roughnessFactor":0.6000000238418579
			}
		}
	],
	"meshes":[
		{
			"name":"ConcreteBench_ConcreteBench_shader_0",
			"primitives":[
				{
					"attributes":{
						"POSITION":0,
						"NORMAL":1,
						"TEXCOORD_0":2
					},
					"indices":3,
					"material":0
				}
			]
		}
	],
	"textures":[
		{
			"sampler":0,
			"source":0
		},
		{
			"sampler":0,
			"source":1
		},
		{
			"sampler":0,
			"source":2
		}
	],
	"images":[
		{
			"mimeType":"image/png",
			"name":"ConcreteBench_shader_emissive",
			"uri":"ConcreteBench_shader_emissive.png"
		},
		{
			"mimeType":"image/png",
			"name":"ConcreteBench_shader_normal",
			"uri":"ConcreteBench_shader_normal.png"
		},
		{
			"mimeType":"image/png",
			"name":"ConcreteBench_shader_baseColor",
			"uri":"ConcreteBench_shader_baseColor.png"
		}
	],
	"accessors":[
		{
			"bufferView":0,
			"componentType":5126,
			"count":5032,
			"max":[
				233.43540954589844,
				108.4954833984375,
				812.438232421875
			],
			"min":[
				118.54044342041016,
				0.7849274277687073,
				605.2749633789062
			],
			"type":"VEC3"
		},
		{
			"bufferView":1,
			"componentType":5126,
			"count":5032,
			"type":"VEC3"
		},
		{
			"bufferView":2,
			"componentType":5126,
			"count":5032,
			"type":"VEC2"
		},
		{
			"bufferView":3,
			"componentType":5123,
			"count":6912,
			"type":"SCALAR"
		}
	],
	"bufferViews":[
		{
			"buffer":0,
			"byteLength":60384,
			"byteOffset":0,
			"target":34962
		},
		{
			"buffer":0,
			"byteLength":60384,
			"byteOffset":60384,
			"target":34962
		},
		{
			"buffer":0,
			"byteLength":40256,
			"byteOffset":120768,
			"target":34962
		},
		{
			"buffer":0,
			"byteLength":13824,
			"byteOffset":161024,
			"target":34963
		}
	],
	"samplers":[
		{
			"magFilter":9729,
			"minFilter":9987
		}
	],
	"buffers":[
		{
			"byteLength":174848,
			"uri":"bench.bin"
		}
	]
}
