{
	"asset":{
		"generator":"Khronos glTF Blender I/O v4.1.63",
		"version":"2.0"
	},
	"scene":0,
	"scenes":[
		{
			"name":"Scene",
			"nodes":[
				0
			]
		}
	],
	"nodes":[
		{
			"mesh":0,
			"name":"Light_Light_shader_0",
			"scale":[
				0.009999999776482582,
				0.010000001639127731,
				0.010000001639127731
			]
		}
	],
	"materials":[
		{
			"alphaMode":"BLEND",
			"doubleSided":true,
			"emissiveFactor":[
				1,
				1,
				1
			],
			"emissiveTexture":{
				"index":0
			},
			"name":"Light_shader",
			"normalTexture":{
				"index":1
			},
			"pbrMetallicRoughness":{
				"baseColorTexture":{
					"index":2
				},
				"metallicFactor":0,
				"roughnessFactor":0.6000000238418579
			}
		}
	],
	"meshes":[
		{
			"name":"Light_Light_shader_0",
			"primitives":[
				{
					"attributes":{
						"POSITION":0,
						"NORMAL":1,
						"TEXCOORD_0":2
					},
					"indices":3,
					"material":0
				}
			]
		}
	],
	"textures":[
		{
			"sampler":0,
			"source":0
		},
		{
			"sampler":0,
			"source":1
		},
		{
			"sampler":0,
			"source":2
		}
	],
	"images":[
		{
			"mimeType":"image/png",
			"name":"Light_shader_emissive",
			"uri":"Light_shader_emissive.png"
		},
		{
			"mimeType":"image/png",
			"name":"Light_shader_normal",
			"uri":"Light_shader_normal.png"
		},
		{
			"mimeType":"image/png",
			"name":"Light_shader_baseColor",
			"uri":"Light_shader_baseColor.png"
		}
	],
	"accessors":[
		{
			"bufferView":0,
			"componentType":5126,
			"count":6148,
			"max":[
				614.7301025390625,
				414.7401428222656,
				266.0328063964844
			],
			"min":[
				568.0357666015625,
				0.11901538819074631,
				220.35321044921875
			],
			"type":"VEC3"
		},
		{
			"bufferView":1,
			"componentType":5126,
			"count":6148,
			"type":"VEC3"
		},
		{
			"bufferView":2,
			"componentType":5126,
			"count":6148,
			"type":"VEC2"
		},
		{
			"bufferView":3,
			"componentType":5123,
			"count":9120,
			"type":"SCALAR"
		}
	],
	"bufferViews":[
		{
			"buffer":0,
			"byteLength":73776,
			"byteOffset":0,
			"target":34962
		},
		{
			"buffer":0,
			"byteLength":73776,
			"byteOffset":73776,
			"target":34962
		},
		{
			"buffer":0,
			"byteLength":49184,
			"byteOffset":147552,
			"target":34962
		},
		{
			"buffer":0,
			"byteLength":18240,
			"byteOffset":196736,
			"target":34963
		}
	],
	"samplers":[
		{
			"magFilter":9729,
			"minFilter":9987
		}
	],
	"buffers":[
		{
			"byteLength":214976,
			"uri":"lamp.bin"
		}
	]
}
