{
	"asset":{
		"generator":"Khronos glTF Blender I/O v4.1.63",
		"version":"2.0"
	},
	"scene":0,
	"scenes":[
		{
			"name":"Scene",
			"nodes":[
				0,
				1,
				2,
				3
			]
		}
	],
	"nodes":[
		{
			"mesh":0,
			"name":"Plane",
			"scale":[
				19.798673629760742,
				19.798673629760742,
				19.798673629760742
			]
		},
		{
			"mesh":1,
			"name":"Tree",
			"scale":[
				0.7339803576469421,
				0.7339803576469421,
				0.7339803576469421
			],
			"translation":[
				3.4700558185577393,
				0,
				14.244997024536133
			]
		},
		{
			"mesh":2,
			"name":"Tree.001",
			"scale":[
				0.7339803576469421,
				0.7339803576469421,
				0.7339803576469421
			],
			"translation":[
				-4.208413124084473,
				0,
				3.983269691467285
			]
		},
		{
			"mesh":3,
			"name":"Tree.002",
			"scale":[
				0.7339803576469421,
				0.7339803576469421,
				0.7339803576469421
			],
			"translation":[
				3.095372200012207,
				0,
				-12.579684257507324
			]
		}
	],
	"materials":[
		{
			"doubleSided":true,
			"name":"path",
			"pbrMetallicRoughness":{
				"baseColorTexture":{
					"index":0
				},
				"metallicFactor":0,
				"roughnessFactor":0.5
			}
		},
		{
			"doubleSided":true,
			"name":"ground",
			"pbrMetallicRoughness":{
				"baseColorTexture":{
					"index":1
				},
				"metallicFactor":0,
				"roughnessFactor":0.5
			}
		},
		{
			"doubleSided":true,
			"name":"Bark",
			"pbrMetallicRoughness":{
				"baseColorTexture":{
					"index":2
				},
				"metallicFactor":0,
				"roughnessFactor":0.4000000059604645
			}
		},
		{
			"doubleSided":true,
			"emissiveFactor":[
				0.9450980424880981,
				0.9450980424880981,
				0.9607843160629272
			],
			"name":"snow",
			"pbrMetallicRoughness":{
				"baseColorTexture":{
					"index":3
				},
				"metallicFactor":0,
				"roughnessFactor":0.4000000059604645
			}
		}
	],
	"meshes":[
		{
			"name":"Plane",
			"primitives":[
				{
					"attributes":{
						"POSITION":0,
						"NORMAL":1,
						"TEXCOORD_0":2
					},
					"indices":3,
					"material":0
				},
				{
					"attributes":{
						"POSITION":4,
						"NORMAL":5,
						"TEXCOORD_0":6
					},
					"indices":7,
					"material":1
				}
			]
		},
		{
			"name":"/Browser/InputFile/9703ad17-d850-42e7-9214-543916dfad71?ext",
			"primitives":[
				{
					"attributes":{
						"POSITION":8,
						"NORMAL":9
					},
					"indices":10,
					"material":2
				},
				{
					"attributes":{
						"POSITION":11,
						"NORMAL":12
					},
					"indices":13,
					"material":2
				},
				{
					"attributes":{
						"POSITION":14,
						"NORMAL":15
					},
					"indices":16,
					"material":3
				}
			]
		},
		{
			"name":"/Browser/InputFile/9703ad17-d850-42e7-9214-543916dfad71?ext.002",
			"primitives":[
				{
					"attributes":{
						"POSITION":17,
						"NORMAL":18
					},
					"indices":10,
					"material":2
				},
				{
					"attributes":{
						"POSITION":19,
						"NORMAL":20
					},
					"indices":13,
					"material":2
				},
				{
					"attributes":{
						"POSITION":21,
						"NORMAL":22
					},
					"indices":16,
					"material":3
				}
			]
		},
		{
			"name":"/Browser/InputFile/9703ad17-d850-42e7-9214-543916dfad71?ext.003",
			"primitives":[
				{
					"attributes":{
						"POSITION":23,
						"NORMAL":24
					},
					"indices":10,
					"material":2
				},
				{
					"attributes":{
						"POSITION":25,
						"NORMAL":26
					},
					"indices":13,
					"material":2
				},
				{
					"attributes":{
						"POSITION":27,
						"NORMAL":28
					},
					"indices":16,
					"material":3
				}
			]
		}
	],
	"textures":[
		{
			"sampler":0,
			"source":0
		},
		{
			"sampler":0,
			"source":1
		},
		{
			"sampler":0,
			"source":2
		},
		{
			"sampler":0,
			"source":1
		}
	],
	"images":[
		{
			"mimeType":"image/png",
			"name":"path",
			"uri":"path.png"
		},
		{
			"mimeType":"image/png",
			"name":"ground",
			"uri":"ground.png"
		},
		{
			"mimeType":"image/png",
			"name":"wood",
			"uri":"wood.png"
		}
	],
	"accessors":[
		{
			"bufferView":0,
			"componentType":5126,
			"count":488,
			"max":[
				0.05263165012001991,
				0.002231769962236285,
				1
			],
			"min":[
				-1,
				0,
				-1
			],
			"type":"VEC3"
		},
		{
			"bufferView":1,
			"componentType":5126,
			"count":488,
			"type":"VEC3"
		},
		{
			"bufferView":2,
			"componentType":5126,
			"count":488,
			"type":"VEC2"
		},
		{
			"bufferView":3,
			"componentType":5123,
			"count":1746,
			"type":"SCALAR"
		},
		{
			"bufferView":4,
			"componentType":5126,
			"count":5396,
			"max":[
				1,
				0,
				1
			],
			"min":[
				-1,
				0,
				-1
			],
			"type":"VEC3"
		},
		{
			"bufferView":5,
			"componentType":5126,
			"count":5396,
			"type":"VEC3"
		},
		{
			"bufferView":6,
			"componentType":5126,
			"count":5396,
			"type":"VEC2"
		},
		{
			"bufferView":7,
			"componentType":5123,
			"count":8094,
			"type":"SCALAR"
		},
		{
			"bufferView":8,
			"componentType":5126,
			"count":288,
			"max":[
				0.5612595677375793,
				6.764239311218262,
				0.22779178619384766
			],
			"min":[
				-0.1910751610994339,
				-0.014050795696675777,
				-0.9598086476325989
			],
			"type":"VEC3"
		},
		{
			"bufferView":9,
			"componentType":5126,
			"count":288,
			"type":"VEC3"
		},
		{
			"bufferView":10,
			"componentType":5123,
			"count":1716,
			"type":"SCALAR"
		},
		{
			"bufferView":11,
			"componentType":5126,
			"count":21538,
			"max":[
				3.307377815246582,
				7.425441265106201,
				2.945521116256714
			],
			"min":[
				-3.264417886734009,
				1.1142657995224,
				-3.2234244346618652
			],
			"type":"VEC3"
		},
		{
			"bufferView":12,
			"componentType":5126,
			"count":21538,
			"type":"VEC3"
		},
		{
			"bufferView":13,
			"componentType":5123,
			"count":85527,
			"type":"SCALAR"
		},
		{
			"bufferView":14,
			"componentType":5126,
			"count":18928,
			"max":[
				3.314495086669922,
				7.427742958068848,
				2.945387363433838
			],
			"min":[
				-3.2705676555633545,
				1.3461450338363647,
				-3.225860834121704
			],
			"type":"VEC3"
		},
		{
			"bufferView":15,
			"componentType":5126,
			"count":18928,
			"type":"VEC3"
		},
		{
			"bufferView":16,
			"componentType":5123,
			"count":108264,
			"type":"SCALAR"
		},
		{
			"bufferView":17,
			"componentType":5126,
			"count":288,
			"max":[
				0.5612595677375793,
				6.764239311218262,
				0.22779178619384766
			],
			"min":[
				-0.1910751610994339,
				-0.014050795696675777,
				-0.9598086476325989
			],
			"type":"VEC3"
		},
		{
			"bufferView":18,
			"componentType":5126,
			"count":288,
			"type":"VEC3"
		},
		{
			"bufferView":19,
			"componentType":5126,
			"count":21538,
			"max":[
				3.307377815246582,
				7.425441265106201,
				2.945521116256714
			],
			"min":[
				-3.264417886734009,
				1.1142657995224,
				-3.2234244346618652
			],
			"type":"VEC3"
		},
		{
			"bufferView":20,
			"componentType":5126,
			"count":21538,
			"type":"VEC3"
		},
		{
			"bufferView":21,
			"componentType":5126,
			"count":18928,
			"max":[
				3.314495086669922,
				7.427742958068848,
				2.945387363433838
			],
			"min":[
				-3.2705676555633545,
				1.3461450338363647,
				-3.225860834121704
			],
			"type":"VEC3"
		},
		{
			"bufferView":22,
			"componentType":5126,
			"count":18928,
			"type":"VEC3"
		},
		{
			"bufferView":23,
			"componentType":5126,
			"count":288,
			"max":[
				0.5612595677375793,
				6.764239311218262,
				0.22779178619384766
			],
			"min":[
				-0.1910751610994339,
				-0.014050795696675777,
				-0.9598086476325989
			],
			"type":"VEC3"
		},
		{
			"bufferView":24,
			"componentType":5126,
			"count":288,
			"type":"VEC3"
		},
		{
			"bufferView":25,
			"componentType":5126,
			"count":21538,
			"max":[
				3.307377815246582,
				7.425441265106201,
				2.945521116256714
			],
			"min":[
				-3.264417886734009,
				1.1142657995224,
				-3.2234244346618652
			],
			"type":"VEC3"
		},
		{
			"bufferView":26,
			"componentType":5126,
			"count":21538,
			"type":"VEC3"
		},
		{
			"bufferView":27,
			"componentType":5126,
			"count":18928,
			"max":[
				3.314495086669922,
				7.427742958068848,
				2.945387363433838
			],
			"min":[
				-3.2705676555633545,
				1.3461450338363647,
				-3.225860834121704
			],
			"type":"VEC3"
		},
		{
			"bufferView":28,
			"componentType":5126,
			"count":18928,
			"type":"VEC3"
		}
	],
	"bufferViews":[
		{
			"buffer":0,
			"byteLength":5856,
			"byteOffset":0,
			"target":34962
		},
		{
			"buffer":0,
			"byteLength":5856,
			"byteOffset":5856,
			"target":34962
		},
		{
			"buffer":0,
			"byteLength":3904,
			"byteOffset":11712,
			"target":34962
		},
		{
			"buffer":0,
			"byteLength":3492,
			"byteOffset":15616,
			"target":34963
		},
		{
			"buffer":0,
			"byteLength":64752,
			"byteOffset":19108,
			"target":34962
		},
		{
			"buffer":0,
			"byteLength":64752,
			"byteOffset":83860,
			"target":34962
		},
		{
			"buffer":0,
			"byteLength":43168,
			"byteOffset":148612,
			"target":34962
		},
		{
			"buffer":0,
			"byteLength":16188,
			"byteOffset":191780,
			"target":34963
		},
		{
			"buffer":0,
			"byteLength":3456,
			"byteOffset":207968,
			"target":34962
		},
		{
			"buffer":0,
			"byteLength":3456,
			"byteOffset":211424,
			"target":34962
		},
		{
			"buffer":0,
			"byteLength":3432,
			"byteOffset":214880,
			"target":34963
		},
		{
			"buffer":0,
			"byteLength":258456,
			"byteOffset":218312,
			"target":34962
		},
		{
			"buffer":0,
			"byteLength":258456,
			"byteOffset":476768,
			"target":34962
		},
		{
			"buffer":0,
			"byteLength":171054,
			"byteOffset":735224,
			"target":34963
		},
		{
			"buffer":0,
			"byteLength":227136,
			"byteOffset":906280,
			"target":34962
		},
		{
			"buffer":0,
			"byteLength":227136,
			"byteOffset":1133416,
			"target":34962
		},
		{
			"buffer":0,
			"byteLength":216528,
			"byteOffset":1360552,
			"target":34963
		},
		{
			"buffer":0,
			"byteLength":3456,
			"byteOffset":1577080,
			"target":34962
		},
		{
			"buffer":0,
			"byteLength":3456,
			"byteOffset":1580536,
			"target":34962
		},
		{
			"buffer":0,
			"byteLength":258456,
			"byteOffset":1583992,
			"target":34962
		},
		{
			"buffer":0,
			"byteLength":258456,
			"byteOffset":1842448,
			"target":34962
		},
		{
			"buffer":0,
			"byteLength":227136,
			"byteOffset":2100904,
			"target":34962
		},
		{
			"buffer":0,
			"byteLength":227136,
			"byteOffset":2328040,
			"target":34962
		},
		{
			"buffer":0,
			"byteLength":3456,
			"byteOffset":2555176,
			"target":34962
		},
		{
			"buffer":0,
			"byteLength":3456,
			"byteOffset":2558632,
			"target":34962
		},
		{
			"buffer":0,
			"byteLength":258456,
			"byteOffset":2562088,
			"target":34962
		},
		{
			"buffer":0,
			"byteLength":258456,
			"byteOffset":2820544,
			"target":34962
		},
		{
			"buffer":0,
			"byteLength":227136,
			"byteOffset":3079000,
			"target":34962
		},
		{
			"buffer":0,
			"byteLength":227136,
			"byteOffset":3306136,
			"target":34962
		}
	],
	"samplers":[
		{
			"magFilter":9729,
			"minFilter":9987
		}
	],
	"buffers":[
		{
			"byteLength":3533272,
			"uri":"Tree.bin"
		}
	]
}
